<?xml version="1.0" encoding="UTF-8"?>
<svg data-bbox="42.5 16.407 916.138 209.498" viewBox="0 0 1000.3 242.3" xmlns="http://www.w3.org/2000/svg" data-type="color">
    <g>
        <path d="m107 113-64.5-.5V75.9l50.5.2c14.5-1 27.5-6.5 39.1-15 14.5-10.2 24.6-24.2 29.5-41.6H242c-6.9 23.6-20 44.3-38 60.8-12.8 11.6-27 19.6-43.5 24.9-17.3 5-34.6 7.9-53.5 7.8" fill="#063b6d" data-color="1"/>
        <path d="M161.9 224.8c-5.2-17.1-14.9-31.2-29.5-41.5-11.6-8.2-24.1-13.9-38.4-15.1l-51.5.2v-36.5l65.8-.6c16.8-.1 32.8 2.5 48.8 6.8 18.7 5.4 34.9 14.5 49 27.9 16.8 16.1 29.1 35.8 35.9 58.7h-80.1Z" fill="#063b6d" data-color="1"/>
        <path d="M792.6 147.2c-28.2-.3-51.8-16.7-60.6-43-4.9-14.6-4.9-30.2 0-44.9 8.4-25.3 30.7-41.5 57.3-42.8 18.7-.9 36.7 4.7 50 18 14.7 14.7 20.7 35 18.4 55.6-3.7 33.7-30.8 57.5-65.1 57.1m2-15.9c19-.5 34.6-11.6 41.5-28.5 5.4-13.3 5.5-27.9.3-41.3-7-18.1-23.8-29.2-43.2-29.2-19 0-35.6 10.9-42.7 28.6s-5.4 28 0 41.5c7.1 18 24.1 29.4 44.2 28.9Z" fill="#063b6d" data-color="1"/>
        <path d="m713.6 143.6-21 .4L661 89.3l-18.7.2v54.4h-17V19.6h47.3c6.8 0 13.5 1.9 19.4 4.6 8.8 4.5 13.9 11.8 16.1 21 4.8 20.3-7.9 39.5-29.4 42.2zm-34.7-71.2c8.2-2.8 11.7-9 12.2-16.8s-6-19.3-17.4-20.5c-10.1-1-20.4-.8-31.4-.7v39.9h24.8c3.5 0 8-1 11.7-1.9Z" fill="#063b6d" data-color="1"/>
        <path fill="#063b6d" d="m319.8 77 63.6 66.5-24.4.4-58.8-62.8-.4 62.9-16.9-.1V19.6h17l.4 54.3 55.8-54.3 23.3.3z" data-color="1"/>
        <path d="M486.1 113.3H427l-12.2 30.6H395l54.6-124c5.1-.4 9.9-.4 15.6-.2l53.1 124.1-19.7.2zm-6.3-15-23.1-57.1-23.6 57.2h46.7Z" fill="#063b6d" data-color="1"/>
        <path d="M934.3 143.8c-18.9 7-46.9 3.2-58.7-13.9l13.8-11.8c9.8 13.4 28.5 17.5 42.4 8.4s11.9-16.6 6-24.7-9-6.9-13.9-8.6l-21.3-7.4c-10.5-3.7-18.9-12-21.8-22.4-5.3-18.8 3.6-36.3 21.5-43.5 15.4-6.1 44.2-4.9 55 10.9l-13.6 12.4c-7.4-9.8-18.4-12.2-29.7-10.1-6.5 1.2-12.3 5.1-14.8 10.4s-2.8 14.1 2.1 19.2c10.9 11.3 29.2 10 44.1 19.8 8.6 5.7 12.8 14 13.2 24.1.7 16.6-8.2 31.2-24.3 37.2" fill="#063b6d" data-color="1"/>
        <path d="M54.4 65.6H42.5v-46h57.2c0 25.2-19.8 45.4-45.2 46Z" fill="#063b6d" data-color="1"/>
        <path d="m99.7 224.7-57.2.2v-46l11.8-.2c24.6.7 44.8 19.6 45.4 46" fill="#bd2e2a" data-color="2"/>
        <path fill="#063b6d" d="m572.5 143.8-17.1.1V19.6h17.1z" data-color="1"/>
        <path d="M753.4 225.9c-14.4.2-24.2-10.8-23.9-24.4.3-13.2 10.2-23 23.4-23.2s24 10.4 23.8 24.1c-.2 12.9-9.5 23.3-23.3 23.5m18.1-23.9c0-11.4-8.6-19.7-19.1-19.3-10.5.3-18 9-17.8 19.9s8.2 19.3 18.8 19.1c10.3-.2 18.2-8.4 18.2-19.6Z" fill="#353535" data-color="3"/>
        <path d="M402.3 224.4c-6.1.5-11.7.3-17.9.2v-45c5.7-.2 11.6-.4 17.3 0 12.3.8 21.1 10 21.6 21.4.5 11.9-7.8 22.3-20.9 23.4Zm1.1-4.6c10.1-1.8 15.5-10.5 14.7-19.7-1.3-14.5-15.2-17.5-28.8-16.4v36.6c4.9.1 9.5.3 14.2-.5Z" fill="#353535" data-color="3"/>
        <path d="m862.2 224-11.6-19.6c-2.2-.6-5.2-.6-7.8-.3l-.2 19.6c0 1.4-4.5 1.2-4.5 0v-44.2l16.4.2c6.9 0 12.1 4.7 12.4 10.9s-3.6 11.9-11.3 12.9l12.4 20.8c-.9.5-5.1.8-5.8-.3m-.5-32.6c-.2-9-12.3-7.7-19-7.5v15.6c7.5.1 19.3 1 19-8.1" fill="#353535" data-color="3"/>
        <path d="M316.4 213h-23l-4.7 10.7c-.6 1.3-4.6 1.4-5.4.1l18.8-43.2c.3-.7 2.7-1.6 3.4-1.4s2.3 1.7 2.8 2.7l18.3 42.2c-1.6.6-5.1.7-5.6-.5l-4.5-10.7Zm-2-4.6-9.6-23-9.7 23.1h19.3Z" fill="#353535" data-color="3"/>
        <path d="M666.5 222.2c-7.2 5.9-18.6 4.5-24-2.4-.3-1.2 2.8-3.5 3.9-3 3.8 4.1 9.8 6.4 15.2 3.4 2.7-1.5 4.6-4.6 4.4-7.7-.7-11.6-27.5-5.5-22.6-24.9 1.2-4.6 5.2-7.9 10.3-8.9s12.5 0 15.9 4.6-2.7 3.6-3.6 2.8c-4.7-4.1-11.4-5.2-16.2-.4s-2.1 5-1.6 6.8 2.8 4.5 4.6 5.1l9.4 3.4c4.1 1.5 7.8 4.6 8.6 8.4s0 9.3-4.2 12.7Z" fill="#353535" data-color="3"/>
        <path d="M512.2 180.7c.6-1.6 4.1-1.7 5.2-.3l-17 43.6c-.8.8-4.2.7-5.2 0l-16.7-43.8c1.3-1.3 4.8-1 5.4.6l13.9 36.5 14.4-36.7Z" fill="#353535" data-color="3"/>
        <path d="m958.3 179.9-16.5 25.5v18.2c0 1-3.8 1.2-4.7.6v-18.8c-.1 0-16.6-25.4-16.6-25.4 1.3-.4 4.1-.5 5.7-.1l13.2 20.6 13.3-20.9 5.6.2Z" fill="#353535" data-color="3"/>
        <path d="M580.5 223.3c0 1.5-4.2 1.9-4.8.8v-43.7c0-1.3 4.7-1.3 4.7.2v42.7Z" fill="#353535" data-color="3"/>
    </g>
</svg>
