<svg xmlns="http://www.w3.org/2000/svg" viewBox="30 10 140 230">
    <path d="m107 113-64.5-.5V75.9l50.5.2c14.5-1 27.5-6.5 39.1-15 14.5-10.2 24.6-24.2 29.5-41.6H242c-6.9 23.6-20 44.3-38 60.8-12.8 11.6-27 19.6-43.5 24.9-17.3 5-34.6 7.9-53.5 7.8" fill="#063b6d"/>
    <path d="M161.9 224.8c-5.2-17.1-14.9-31.2-29.5-41.5-11.6-8.2-24.1-13.9-38.4-15.1l-51.5.2v-36.5l65.8-.6c16.8-.1 32.8 2.5 48.8 6.8 18.7 5.4 34.9 14.5 49 27.9 16.8 16.1 29.1 35.8 35.9 58.7h-80.1Z" fill="#063b6d"/>
    <path d="M54.4 65.6H42.5v-46h57.2c0 25.2-19.8 45.4-45.2 46Z" fill="#063b6d"/>
    <path d="m99.7 224.7-57.2.2v-46l11.8-.2c24.6.7 44.8 19.6 45.4 46" fill="#bd2e2a"/>
</svg>
